<svg xmlns="http://www.w3.org/2000/svg" viewBox="0 0 128 128">
  <defs>
    <radialGradient id="g" cx="40%" cy="35%" r="55%">
      <stop offset="0%" stop-color="#ffffff"/>
      <stop offset="100%" stop-color="#c8c8c8"/>
    </radialGradient>
  </defs>
  <circle cx="64" cy="64" r="60" fill="url(#g)" stroke="#333" stroke-width="3"/>
  <!-- Pentagon patches -->
  <polygon points="64,24 78,38 73,55 55,55 50,38" fill="#222"/>
  <polygon points="95,52 108,68 100,85 84,82 82,64" fill="#222"/>
  <polygon points="33,52 46,64 44,82 28,85 20,68" fill="#222"/>
  <polygon points="42,95 55,84 73,84 86,95 78,110" fill="#222"/>
  <polygon points="64,24 50,38 33,52 20,68 24,40" fill="none" stroke="#444" stroke-width="1.5"/>
  <!-- Stitch lines between patches -->
  <line x1="78" y1="38" x2="82" y2="64" stroke="#444" stroke-width="1.5"/>
  <line x1="73" y1="55" x2="84" y2="82" stroke="#444" stroke-width="1.5"/>
  <line x1="55" y1="55" x2="44" y2="82" stroke="#444" stroke-width="1.5"/>
  <line x1="50" y1="38" x2="46" y2="64" stroke="#444" stroke-width="1.5"/>
  <line x1="73" y1="84" x2="100" y2="85" stroke="#444" stroke-width="1.5"/>
  <line x1="55" y1="84" x2="28" y2="85" stroke="#444" stroke-width="1.5"/>
  <line x1="95" y1="52" x2="78" y2="38" stroke="#444" stroke-width="1.5"/>
  <line x1="33" y1="52" x2="50" y2="38" stroke="#444" stroke-width="1.5"/>
  <line x1="108" y1="68" x2="86" y2="95" stroke="#444" stroke-width="1.5"/>
  <line x1="20" y1="68" x2="42" y2="95" stroke="#444" stroke-width="1.5"/>
</svg>
